<svg width="37" height="24" viewBox="0 0 37 24" fill="none" xmlns="http://www.w3.org/2000/svg">
<path d="M11.2941 23.2942C17.5317 23.2942 22.5882 18.2376 22.5882 12.0001C22.5882 5.76248 17.5317 0.705933 11.2941 0.705933C5.05655 0.705933 0 5.76248 0 12.0001C0 18.2376 5.05655 23.2942 11.2941 23.2942Z" fill="#E61C24"/>
<path d="M25.3185 23.2942C31.5561 23.2942 36.6126 18.2376 36.6126 12.0001C36.6126 5.76248 31.5561 0.705933 25.3185 0.705933C19.081 0.705933 14.0244 5.76248 14.0244 12.0001C14.0244 18.2376 19.081 23.2942 25.3185 23.2942Z" fill="#F99F1B"/>
<path d="M18.3072 3.15695C16.9724 4.21224 15.8937 5.55602 15.1522 7.08756C14.4106 8.61909 14.0254 10.2986 14.0254 12.0002C14.0254 13.7019 14.4106 15.3814 15.1522 16.9129C15.8937 18.4445 16.9724 19.7883 18.3072 20.8435C19.6421 19.7883 20.7208 18.4445 21.4623 16.9129C22.2039 15.3814 22.5891 13.7019 22.5891 12.0002C22.5891 10.2986 22.2039 8.61909 21.4623 7.08756C20.7208 5.55602 19.6421 4.21224 18.3072 3.15695Z" fill="#F26622"/>
</svg>
