<svg width="24" height="24" viewBox="0 0 24 24" fill="none" xmlns="http://www.w3.org/2000/svg">
<path d="M24 12C23.9966 8.81846 22.7312 5.76821 20.4815 3.51852C18.2318 1.26883 15.1815 0.00344108 12 0C11.7348 0 11.4804 0.105357 11.2929 0.292893C11.1054 0.48043 11 0.734784 11 1C11 1.26522 11.1054 1.51957 11.2929 1.70711C11.4804 1.89464 11.7348 2 12 2C13.8927 1.99987 15.7466 2.53688 17.3461 3.54862C18.9457 4.56035 20.2253 6.00526 21.0363 7.71543C21.8472 9.42559 22.1562 11.3308 21.9272 13.2096C21.6983 15.0884 20.9409 16.8636 19.743 18.329L17.343 15.929L16.322 23.079L23.471 22.057L21.158 19.744C22.9977 17.5837 24.0056 14.8375 24 12Z" fill="url(#paint0_linear)"/>
<path d="M12.0004 22C10.1078 22.0001 8.25389 21.4631 6.6543 20.4514C5.05472 19.4396 3.7751 17.9947 2.96416 16.2846C2.15322 14.5744 1.84427 12.6692 2.0732 10.7904C2.30214 8.91162 3.05956 7.13637 4.25744 5.67099L6.65744 8.07099L7.67844 0.92099L0.529444 1.94299L2.84244 4.25599C1.36321 6.00191 0.414382 8.13461 0.107989 10.4023C-0.198405 12.67 0.150423 14.9781 1.11329 17.0539C2.07616 19.1298 3.61287 20.8869 5.542 22.1177C7.47113 23.3485 9.71213 24.0016 12.0004 24C12.2657 24 12.52 23.8946 12.7076 23.7071C12.8951 23.5196 13.0004 23.2652 13.0004 23C13.0004 22.7348 12.8951 22.4804 12.7076 22.2929C12.52 22.1053 12.2657 22 12.0004 22Z" fill="url(#paint1_linear)"/>
<path d="M15.9836 14.214C15.9931 14.5923 15.9185 14.9679 15.7651 15.3138C15.6117 15.6597 15.3833 15.9672 15.0966 16.214C14.3642 16.7954 13.4693 17.1347 12.5356 17.185V19H11.4236V17.234C10.2571 17.2551 9.09837 17.0394 8.01758 16.6V14.833C8.55623 15.0876 9.11994 15.2853 9.69958 15.423C10.2629 15.571 10.8414 15.6539 11.4236 15.67V12.54L10.7236 12.28C9.96331 12.0285 9.27534 11.5965 8.71858 11.021C8.29056 10.5165 8.06469 9.8713 8.08458 9.21C8.07732 8.84525 8.15483 8.4838 8.311 8.1541C8.46718 7.82439 8.69775 7.53544 8.98458 7.31C9.69029 6.77399 10.5398 6.46064 11.4246 6.41V5H12.5366V6.381C13.643 6.4145 14.7344 6.64687 15.7586 7.067L15.1466 8.6C14.3121 8.26435 13.432 8.0557 12.5356 7.981V11.027L13.1716 11.27C13.9914 11.5312 14.7429 11.9715 15.3716 12.559C15.7797 13.0121 15.9987 13.6044 15.9836 14.214ZM10.0506 9.193C10.0424 9.48679 10.1502 9.772 10.3506 9.987C10.6618 10.2688 11.0282 10.4826 11.4266 10.615V8.015C11.0537 8.05098 10.699 8.19328 10.4046 8.425C10.2922 8.5187 10.2022 8.63623 10.141 8.76908C10.0797 8.90192 10.0489 9.04673 10.0506 9.193ZM14.0086 14.339C14.013 14.1891 13.985 14.04 13.9265 13.9019C13.868 13.7639 13.7804 13.6401 13.6696 13.539C13.3328 13.2677 12.9481 13.0618 12.5356 12.932V15.6C13.5176 15.4513 14.0086 15.031 14.0086 14.339Z" fill="#22272F"/>
<defs>
<linearGradient id="paint0_linear" x1="11" y1="0.721219" x2="26.6492" y2="2.8626" gradientUnits="userSpaceOnUse">
<stop stop-color="#21BF73"/>
<stop offset="0.520833" stop-color="#D6D03F"/>
<stop offset="1" stop-color="#FE9801"/>
</linearGradient>
<linearGradient id="paint1_linear" x1="-6.85073e-08" y1="1.64221" x2="15.6497" y2="3.78372" gradientUnits="userSpaceOnUse">
<stop stop-color="#21BF73"/>
<stop offset="0.520833" stop-color="#D6D03F"/>
<stop offset="1" stop-color="#FE9801"/>
</linearGradient>
</defs>
</svg>
