<svg width="55" height="24" viewBox="0 0 55 24" fill="none" xmlns="http://www.w3.org/2000/svg">
<path d="M10.3264 3.31871C10.9697 2.51573 11.4063 1.43757 11.2911 0.335815C10.3494 0.382545 9.20016 0.955814 8.53482 1.75942C7.93741 2.44759 7.40866 3.5709 7.5465 4.62646C8.60366 4.71797 9.65984 4.09916 10.3264 3.31871Z" fill="#22272F"/>
<path d="M11.28 4.83425C9.74477 4.743 8.43944 5.70375 7.70628 5.70375C6.97272 5.70375 5.85002 4.88024 4.63572 4.90244C3.05524 4.9256 1.58874 5.81734 0.786708 7.23564C-0.862927 10.0729 0.35137 14.2816 1.95555 16.5924C2.73458 17.7356 3.67344 18.9944 4.91053 18.9492C6.07938 18.9034 6.53752 18.1939 7.9583 18.1939C9.37803 18.1939 9.79072 18.9492 11.028 18.9263C12.3111 18.9034 13.1133 17.7825 13.8923 16.6382C14.786 15.335 15.1518 14.0766 15.1748 14.0075C15.1518 13.9846 12.7007 13.0463 12.6779 10.2326C12.6548 7.87662 14.6024 6.75599 14.694 6.6865C13.5942 5.06327 11.8758 4.88024 11.28 4.83425Z" fill="#22272F"/>
<path d="M24.6477 1.64315C27.9845 1.64315 30.308 3.93843 30.308 7.28019C30.308 10.6339 27.9367 12.9411 24.564 12.9411H20.8695V18.8041H18.2002V1.64314H24.6477V1.64315ZM20.8695 10.7052H23.9323C26.2563 10.7052 27.579 9.45664 27.579 7.29211C27.579 5.12782 26.2563 3.89094 23.9442 3.89094H20.8695V10.7052Z" fill="#22272F"/>
<path d="M31.0049 15.2512C31.0049 13.0628 32.6853 11.7191 35.6649 11.5525L39.0968 11.3504V10.3872C39.0968 8.99575 38.1553 8.16329 36.5825 8.16329C35.0925 8.16329 34.1629 8.87669 33.9367 9.99474H31.5055C31.6485 7.73502 33.579 6.0701 36.6777 6.0701C39.7166 6.0701 41.659 7.6756 41.659 10.1849V18.807H39.192V16.7496H39.1327C38.4058 18.1411 36.8207 19.021 35.1761 19.021C32.7211 19.021 31.0049 17.4988 31.0049 15.2512ZM39.0968 14.1215V13.1344L36.0101 13.3246C34.4727 13.4317 33.6029 14.1096 33.6029 15.1799C33.6029 16.2739 34.5086 16.9875 35.891 16.9875C37.6905 16.9875 39.0968 15.7506 39.0968 14.1215Z" fill="#22272F"/>
<path d="M43.9885 23.4082V21.3269C44.1788 21.3744 44.6078 21.3744 44.8225 21.3744C46.0141 21.3744 46.6578 20.875 47.0509 19.5906C47.0509 19.5668 47.2775 18.8295 47.2775 18.8176L42.749 6.29469H45.5374L48.7078 16.4748H48.7551L51.9255 6.29469H54.6426L49.9468 19.4597C48.8747 22.4924 47.6352 23.4676 45.0372 23.4676C44.8225 23.4676 44.1788 23.4437 43.9885 23.4082Z" fill="#22272F"/>
</svg>
