<svg width="46" height="14" viewBox="0 0 46 14" fill="none" xmlns="http://www.w3.org/2000/svg">
<path d="M16.0352 13.7767H19.7184L22.0239 0.257614H18.3392L16.0352 13.7767Z" fill="#1A1876"/>
<path d="M29.4544 5.68546C28.1669 5.06005 27.3777 4.64217 27.3862 4.0097C27.3862 3.44499 28.0539 2.8464 29.5038 2.8464C30.5722 2.81967 31.6312 3.05065 32.5914 3.51981L33.0911 0.590401C32.032 0.20834 30.9135 0.0171441 29.7876 0.0256958C26.1467 0.0256958 23.5758 1.86099 23.5603 4.48687C23.5405 6.42946 25.3956 7.5137 26.789 8.15746C28.2234 8.81958 28.7062 9.2417 28.6991 9.83323C28.6892 10.7396 27.5542 11.1546 26.4939 11.1546C25.1223 11.1867 23.7652 10.8684 22.5509 10.2299L22.0342 13.2553C23.3476 13.7407 24.7379 13.9851 26.1382 13.9768C30.0121 13.9768 32.5264 12.164 32.5547 9.35887C32.5617 7.82005 31.5805 6.6497 29.4544 5.68546Z" fill="#1A1876"/>
<path d="M42.5326 0.270239H39.6851C39.2849 0.218996 38.879 0.301031 38.5302 0.503655C38.1813 0.70628 37.909 1.0182 37.7552 1.39118L32.2832 13.7766H36.1528C36.1528 13.7766 36.7853 12.1107 36.9279 11.7451H41.6474C41.7576 12.2194 42.0964 13.7709 42.0964 13.7709H45.5157L42.5326 0.270239ZM37.9896 8.98506C38.142 8.59401 39.6456 4.73283 39.9463 3.91542C40.4432 6.24483 39.959 3.98459 41.0474 8.98506H37.9896Z" fill="#1A1876"/>
<path d="M12.9445 0.267135L9.336 9.48596L8.952 7.61255L7.66023 1.40078C7.56608 1.0409 7.34509 0.727149 7.03795 0.517286C6.73081 0.307424 6.35819 0.21558 5.98871 0.258663H0.0465882L0 0.541015C1.35105 0.859784 2.65308 1.35885 3.87106 2.02478L7.14635 13.7664H11.0456L16.8466 0.272781L12.9445 0.267135Z" fill="#1A1876"/>
</svg>
